<svg aria-hidden="true" style="position: absolute; width: 0; height: 0; overflow: hidden;" version="1.1" xmlns="http://www.w3.org/2000/svg" xmlns:xlink="http://www.w3.org/1999/xlink">
<defs>
<symbol id="icon-logo" viewBox="0 0 127 32">
<path d="M111.668 14.208s-1.741 3.398-3.606 5.066h-2.115c-1.802-1.606-3.606-5.066-3.606-5.066v10.625h-5.347v-15.752h6.217l3.793 5.745 3.793-5.745h6.218v15.75h-5.349v-10.624zM48.187 12.603c-1.181 0-2.922 0.925-3.233 1.915 0.435 0.803 2.115 1.482 3.171 1.421 1.12 0 1.928-0.618 1.928-1.668s-0.808-1.668-1.865-1.668zM87.048 12.603c-1.181 0-2.924 0.925-3.233 1.915 0.435 0.803 2.113 1.482 3.171 1.421 1.119 0 1.928-0.618 1.928-1.668s-0.809-1.668-1.865-1.668zM28.476 20.634c-2.115 0-3.917-2.534-4.229-4.078 0.311-1.544 2.115-4.138 4.228-4.077 2.053 0 2.985 1.792 2.985 4.077 0 2.225-0.933 4.078-2.985 4.078zM67.212 12.911c-2.115 0-3.917 2.348-4.228 3.891 0.311 1.606 2.052 4.325 4.228 4.262 2.052 0 2.985-1.792 2.985-4.077 0-2.223-0.934-4.077-2.985-4.077zM49.491 21.065c1.057 0 2.922-0.246 3.606-0.617l2.24 2.842c-1.431 1.174-4.664 1.976-6.779 1.976-5.658 0-9.263-3.397-9.263-8.463 0-5.004 4.228-8.401 9.139-8.401 4.539 0 6.342 2.964 6.342 5.559 0 3.213-2.735 4.881-5.844 4.881-1.555 0-3.109-0.433-4.228-1.359 0.186 1.978 2.363 3.584 4.787 3.584zM88.352 21.065c1.056 0 2.922-0.246 3.606-0.617l2.239 2.842c-1.431 1.174-4.664 1.976-6.778 1.976-5.658 0-9.265-3.397-9.265-8.463 0-5.004 4.228-8.401 9.139-8.401 4.54 0 6.344 2.964 6.344 5.559 0 3.213-2.737 4.881-5.846 4.881-1.554 0-3.108-0.433-4.228-1.359 0.187 1.978 2.363 3.584 4.787 3.584zM6.591 25.267c2.487 0 4.415-1.853 4.415-1.853v0.989c0 2.409-1.492 3.706-5.286 3.706-1.056 0-2.921-0.556-3.604-0.927l-1.679 2.533c1.43 1.172 4.104 2.223 6.715 2.285 5.222 0 8.829-2.78 8.829-7.969v-14.95h-5.348v8.218c0 2.47-1.367 3.089-2.735 3.089s-2.55-0.618-2.55-3.089v-8.218h-5.347v9.329c0 4.201 2.052 6.857 6.591 6.857zM75.544 16.62c0 6.054-4.104 8.648-7.834 8.648-1.741 0-3.11-0.678-3.981-1.729v7.784h-5.347v-22.303h3.046c0.498 0.804 0.809 1.545 1.12 2.348h0.187s2.237-2.964 5.844-2.964c3.606 0 6.963 2.842 6.963 8.216zM30.218 8.463c-3.607 0-5.535 2.595-5.535 2.595h-0.186c-0.374-2.719 1.243-4.387 5.347-4.756 2.426-0.247 6.218-1.421 7.524-2.78l-2.55-3.521c-1.989 0.988-4.165 1.298-6.839 1.668-3.171 0.433-8.954 2.348-9.016 11.429 0 8.772 4.787 12.232 9.327 12.232 4.352 0 8.456-3.337 8.456-8.649 0-5.375-3.233-8.216-6.528-8.216zM123.544 19.397c-1.741 0-3.357 2.163-3.606 3.521 0.248 1.298 1.804 3.521 3.606 3.521 0.311 0 0.559-0.061 0.809-0.123 1.243-0.371 1.802-1.792 1.802-3.398 0-1.792-0.684-3.274-2.176-3.52h-0.435z"></path>
</symbol>
<symbol id="icon-menu" viewBox="0 0 32 32">
<path d="M26 13c0.552 0 1-0.448 1-1s-0.448-1-1-1h-20c-0.552 0-1 0.448-1 1s0.448 1 1 1h20zM6 19c-0.552 0-1 0.448-1 1s0.448 1 1 1h20c0.552 0 1-0.448 1-1s-0.448-1-1-1h-20z"></path>
</symbol>
</defs>
</svg>
