<svg width="43" height="43" viewBox="0 0 43 43" fill="none" xmlns="http://www.w3.org/2000/svg">
<circle cx="21.2129" cy="21.2132" r="15" transform="rotate(45 21.2129 21.2132)" fill="#5A30F0"/>
<g clip-path="url(#clip0)">
<path fill-rule="evenodd" clip-rule="evenodd" d="M16.2631 24.7485C15.8726 25.139 15.8726 25.7722 16.2631 26.1627C16.6537 26.5532 17.2868 26.5532 17.6774 26.1627L21.2129 22.6272L24.7484 26.1627C25.1389 26.5532 25.7721 26.5532 26.1626 26.1627C26.5532 25.7722 26.5532 25.139 26.1626 24.7485L22.6271 21.213L26.1626 17.6774C26.5532 17.2869 26.5532 16.6537 26.1626 16.2632C25.7721 15.8727 25.1389 15.8727 24.7484 16.2632L21.2129 19.7988L17.6774 16.2632C17.2868 15.8727 16.6537 15.8727 16.2631 16.2632C15.8726 16.6537 15.8726 17.2869 16.2631 17.6774L19.7987 21.213L16.2631 24.7485Z" fill="white"/>
</g>
<defs>
<clipPath id="clip0">
<rect width="12" height="12" fill="white" transform="translate(21.2129 29.6982) rotate(-135)"/>
</clipPath>
</defs>
</svg>
